The Horsemen (2008) [BDRip720p][Nautilus-BT]
Join www.nautilus-bt.org


Link IMDb : http://www.imdb.com/title/tt0892767/

A recently widowed detective still grieving over his wife's death discovers a shocking connection between himself and the suspects in a serial killing spree linked to the Four Horsemen of the Apocalypse.








Titolo italiano : The Horsemen
Titolo originale : The Horsemen
Anno : 2008
Genere : drammatico - thriller - horror
Paese : USA
Sceneggiatura : [/b]........ Dave Callaham
Regia : Jonas Åkerlund
Scenografia : Sandy Cochrane


Lingue : Italiano - Inglese
Sottotitoli per non udenti : Italiano
Cartelli : [/b]......... Italiano ( ass e srt )
Capitoli : presenti


[code]
General
Complete name                    : The Horsemen (2008) [BDRip720p Ita-Eng] by Pitt@Sk8.mkv
Format                           : Matroska
File size                        : 4.38 GiB
Duration                         : 1h 30mn
Overall bit rate                 : 6 943 Kbps
Encoded date                     : UTC 2010-10-20 17:46:49
Writing application              : mkvmerge v4.0.0 ('The Stars were mine') built on Jun  6 2010 16:18:42
Writing library                  : libebml v1.0.0 + libmatroska v1.0.0

Video
ID                               : 1
Format                           : AVC
Format/Info                      : Advanced Video Codec
Format profile                   : High@L4.1
Format settings, CABAC           : Yes
Format settings, ReFrames        : 3 frames
Muxing mode                      : Container profile=Unknown@4.1
Codec ID                         : V_MPEG4/ISO/AVC
Duration                         : 1h 30mn
Bit rate mode                    : Variable
Bit rate                         : 4 986 Kbps
Maximum bit rate                 : 40.0 Mbps
Width                            : 1 280 pixels
Height                           : 720 pixels
Display aspect ratio             : 16:9
Frame rate                       : 23.976 fps
Color space                      : YUV
Chroma subsampling               : 4:2:0
Bit depth                        : 8 bits
Scan type                        : Progressive
Bits/(Pixel*Frame)               : 0.226
Stream size                      : 3.05 GiB (70%)
Title                            : BDRip720p by Pitt@Sk8
Writing library                  : x264 core 104 r1713 c276662
Encoding settings                : cabac=1 / ref=4 / deblock=1:0:0 / analyse=0x3:0x133 / me=hex / subme=7 / psy=1 / psy_rd=1.00:0.00 / mixed_ref=1 / me_range=16 / chroma_me=1 / trellis=1 / 8x8dct=1 / cqm=0 / deadzone=21,11 / fast_pskip=0 / chroma_qp_offset=-2 / threads=6 / sliced_threads=0 / slices=4 / nr=0 / decimate=1 / interlaced=0 / constrained_intra=0 / bframes=3 / b_pyramid=1 / b_adapt=2 / b_bias=0 / direct=1 / weightb=1 / open_gop=0 / weightp=2 / keyint=240 / keyint_min=23 / scenecut=40 / intra_refresh=0 / rc_lookahead=40 / rc=2pass / mbtree=1 / bitrate=4986 / ratetol=1.0 / qcomp=0.60 / qpmin=10 / qpmax=51 / qpstep=4 / cplxblur=20.0 / qblur=0.5 / vbv_maxrate=40000 / vbv_bufsize=40000 / ip_ratio=1.40 / aq=1:1.00 / nal_hrd=vbr

Audio #1
ID                               : 2
Format                           : DTS
Format/Info                      : Digital Theater Systems
Codec ID                         : A_DTS
Duration                         : 1h 30mn
Bit rate mode                    : Constant
Bit rate                         : 1 510 Kbps
Channel(s)                       : 6 channels
Channel positions                : Front: L C R, Side: L R, LFE
Sampling rate                    : 48.0 KHz
Bit depth                        : 24 bits
Stream size                      : 974 MiB (22%)
Title                            : Italiano DTS 5.1 - Pitt@Sk8
Language                         : Italian

Audio #2
ID                               : 3
Format                           : AC-3
Format/Info                      : Audio Coding 3
Mode extension                   : CM (complete main)
Codec ID                         : A_AC3
Duration                         : 1h 30mn
Bit rate mode                    : Constant
Bit rate                         : 448 Kbps
Channel(s)                       : 2 channels
Channel positions                : Front: L R
Sampling rate                    : 48.0 KHz
Bit depth                        : 16 bits
Stream size                      : 289 MiB (6%)
Title                            : Inglese AC3 2.0 448 kbps - Pitt@Sk8
Language                         : English

Text #1
ID                               : 4
Format                           : ASS
Codec ID                         : S_TEXT/ASS
Codec ID/Info                    : Advanced Sub Station Alpha
Title                            : Cartelli ASS - Italiano
Language                         : Italian

Text #2
ID                               : 5
Format                           : UTF-8
Codec ID                         : S_TEXT/UTF8
Codec ID/Info                    : UTF-8 Plain Text
Title                            : Cartelli SRT - Italiano
Language                         : Italian

Text #3
ID                               : 6
Format                           : UTF-8
Codec ID                         : S_TEXT/UTF8
Codec ID/Info                    : UTF-8 Plain Text
Title                            : Sottotitoli - Italiano per non udenti
Language                         : Italian

Menu
00:00:00.000                     : en:Inizio film
00:08:26.715                     : en:Seconda vittima
00:13:46.117                     : en:L'autopsia
00:15:04.070                     : en:Momenti difficili
00:17:37.306                     : en:Un altro cadavere
00:20:57.381                     : en:Il tatuatore
00:23:35.664                     : en:Rivelazione
00:29:33.981                     : en:Il colloquio
00:34:08.129                     : en:Kristin
00:40:00.732                     : en:Inquietanti rivelazioni
00:46:39.547                     : en:Nostalgia
00:49:14.618                     : en:"Noi siamo il niente"
00:52:04.913                     : en:Corey
00:56:47.362                     : en:Caccia all'uomo
00:59:21.391                     : en:Il dolore deve scomparire
01:02:37.420                     : en:Segui il leader
01:06:56.846                     : en:Padre e figlio
01:09:31.167                     : en:Pestilenza
01:14:00.519                     : en:"Ce l'hanno con me!"
01:18:53.729                     : en:Epilogo
[/code]

Join www.nautilus-bt.org
